<svg width="16" height="11" viewBox="0 0 16 11" fill="none" xmlns="http://www.w3.org/2000/svg">
<rect width="16" height="11" fill="#E5E5E5"/>
<rect width="1920" height="5861" transform="translate(-616 -941)" fill="#F7FCFD"/>
<rect x="-247" y="-28" width="297" height="67" rx="33.5" fill="#24BEE0"/>
<path d="M8.11789 0.99154C7.9229 1.09674 7.80133 1.29678 7.80133 1.51435V4.90222H1.11191C0.774137 4.90222 0.5 5.17 0.5 5.49994C0.5 5.82988 0.774137 6.09766 1.11191 6.09766H7.80133V9.48553C7.80133 9.7039 7.9229 9.90393 8.11789 10.0083C8.31289 10.1143 8.55113 10.1072 8.7396 9.9916L15.2144 6.00601C15.3923 5.89603 15.5 5.70555 15.5 5.49994C15.5 5.29432 15.3923 5.10385 15.2144 4.99387L8.7396 1.00828C8.64006 0.947707 8.52665 0.916626 8.41324 0.916626C8.31207 0.916626 8.21009 0.942129 8.11789 0.99154" fill="white"/>
</svg>
