<svg width="30" height="30" viewBox="0 0 30 30" fill="none" xmlns="http://www.w3.org/2000/svg">
<rect width="30" height="30" fill="#E5E5E5"/>
<rect width="1920" height="5861" transform="translate(-418 -680)" fill="#F7FCFD"/>
<path d="M-52 8C-52 -20.2843 -52 -34.4264 -43.2132 -43.2132C-34.4264 -52 -20.2843 -52 8 -52H512C540.284 -52 554.426 -52 563.213 -43.2132C572 -34.4264 572 -20.2843 572 8V121C572 149.284 572 163.426 563.213 172.213C554.426 181 540.284 181 512 181H8.00001C-20.2843 181 -34.4264 181 -43.2132 172.213C-52 163.426 -52 149.284 -52 121V8Z" fill="#F4F5F4"/>
<path fill-rule="evenodd" clip-rule="evenodd" d="M3.75 21.0875V11.5713H26.25V21.1638C26.25 25.0875 23.7802 27.5 19.8285 27.5H10.1592C6.24451 27.5 3.75 25.0375 3.75 21.0875ZM9.94923 18.0125C9.38117 18.0388 8.91191 17.5875 8.88721 17.0138C8.88721 16.4388 9.33178 15.9638 9.89984 15.9375C10.4555 15.9375 10.9125 16.3763 10.9248 16.9375C10.9495 17.5138 10.5049 17.9888 9.94923 18.0125ZM15.0247 18.0125C14.4566 18.0388 13.9874 17.5875 13.9627 17.0138C13.9627 16.4388 14.4072 15.9638 14.9753 15.9375C15.531 15.9375 15.9879 16.3763 16.0003 16.9375C16.025 17.5138 15.5804 17.9888 15.0247 18.0125ZM20.0631 22.6125C19.4951 22.6 19.0381 22.125 19.0381 21.55C19.0258 20.975 19.4827 20.5013 20.0508 20.4888H20.0631C20.6435 20.4888 21.1128 20.9638 21.1128 21.55C21.1128 22.1375 20.6435 22.6125 20.0631 22.6125ZM13.9627 21.55C13.9874 22.125 14.4566 22.5763 15.0247 22.55C15.5804 22.5263 16.025 22.0513 16.0003 21.4763C15.9879 20.9138 15.531 20.475 14.9753 20.475C14.4072 20.5013 13.9627 20.975 13.9627 21.55ZM8.87486 21.55C8.89956 22.125 9.36883 22.5763 9.93688 22.55C10.4926 22.5263 10.9372 22.0513 10.9125 21.4763C10.9001 20.9138 10.4432 20.475 9.88749 20.475C9.31943 20.5013 8.87486 20.975 8.87486 21.55ZM19.0505 17.0013C19.0505 16.4263 19.4951 15.9638 20.0631 15.9513C20.6188 15.9513 21.0634 16.4 21.0881 16.9513C21.1004 17.5263 20.6559 18.0013 20.1002 18.0125C19.5321 18.025 19.0628 17.5875 19.0505 17.0138V17.0013Z" fill="#B11D34"/>
<path opacity="0.4" d="M3.75421 11.5712C3.77027 10.8374 3.83201 9.38118 3.94809 8.91243C4.54085 6.27618 6.55375 4.60118 9.43108 4.36243H20.5699C23.4226 4.61368 25.4602 6.29993 26.0529 8.91243C26.1678 9.36868 26.2295 10.8362 26.2456 11.5712H3.75421Z" fill="#B11D34"/>
<path d="M10.3811 8.2375C10.9244 8.2375 11.3319 7.82625 11.3319 7.275V3.46375C11.3319 2.9125 10.9244 2.5 10.3811 2.5C9.8377 2.5 9.43018 2.9125 9.43018 3.46375V7.275C9.43018 7.82625 9.8377 8.2375 10.3811 8.2375Z" fill="#B11D34"/>
<path d="M19.6187 8.2375C20.1497 8.2375 20.5695 7.82625 20.5695 7.275V3.46375C20.5695 2.9125 20.1497 2.5 19.6187 2.5C19.0753 2.5 18.6678 2.9125 18.6678 3.46375V7.275C18.6678 7.82625 19.0753 8.2375 19.6187 8.2375Z" fill="#B11D34"/>
</svg>
