<svg width="42" height="42" viewBox="0 0 42 42" fill="none" xmlns="http://www.w3.org/2000/svg">
<rect x="0.5" y="0.5" width="41" height="41" rx="20.5" stroke="#0F97B5"/>
<path fill-rule="evenodd" clip-rule="evenodd" d="M15.25 12.5C12.5 12.5 12.5 12.708 12.5 15.25V15.275C12.5 16.382 12.5 17.182 12.771 17.52C13.036 17.848 13.823 18 15.25 18C16.677 18 17.464 17.847 17.729 17.519C18 17.182 18 16.382 18 15.274C18 12.708 18 12.5 15.25 12.5ZM15.25 19.5C13.564 19.5 12.299 19.323 11.604 18.46C11 17.711 11 16.689 11 15.275L11.75 15.25H11C11 12.38 11.181 11 15.25 11C19.319 11 19.5 12.38 19.5 15.25C19.5 16.688 19.5 17.711 18.896 18.46C18.201 19.323 16.936 19.5 15.25 19.5Z" fill="#0F97B5"/>
<path fill-rule="evenodd" clip-rule="evenodd" d="M26.25 12.5C23.5 12.5 23.5 12.708 23.5 15.25V15.275C23.5 16.382 23.5 17.182 23.771 17.52C24.036 17.848 24.823 18 26.25 18C27.677 18 28.464 17.847 28.729 17.519C29 17.182 29 16.382 29 15.274C29 12.708 29 12.5 26.25 12.5ZM26.25 19.5C24.564 19.5 23.299 19.323 22.604 18.46C22 17.711 22 16.689 22 15.275L22.75 15.25H22C22 12.38 22.181 11 26.25 11C30.319 11 30.5 12.38 30.5 15.25C30.5 16.688 30.5 17.711 29.896 18.46C29.201 19.323 27.936 19.5 26.25 19.5Z" fill="#0F97B5"/>
<path fill-rule="evenodd" clip-rule="evenodd" d="M15.25 23.5C12.5 23.5 12.5 23.708 12.5 26.25V26.275C12.5 27.382 12.5 28.182 12.771 28.52C13.036 28.848 13.823 29 15.25 29C16.677 29 17.464 28.847 17.729 28.519C18 28.182 18 27.382 18 26.274C18 23.708 18 23.5 15.25 23.5ZM15.25 30.5C13.564 30.5 12.299 30.323 11.604 29.46C11 28.711 11 27.689 11 26.275L11.75 26.25H11C11 23.38 11.181 22 15.25 22C19.319 22 19.5 23.38 19.5 26.25C19.5 27.688 19.5 28.711 18.896 29.46C18.201 30.323 16.936 30.5 15.25 30.5Z" fill="#0F97B5"/>
<path fill-rule="evenodd" clip-rule="evenodd" d="M26.25 23.5C23.5 23.5 23.5 23.708 23.5 26.25V26.275C23.5 27.382 23.5 28.182 23.771 28.52C24.036 28.848 24.823 29 26.25 29C27.677 29 28.464 28.847 28.729 28.519C29 28.182 29 27.382 29 26.274C29 23.708 29 23.5 26.25 23.5ZM26.25 30.5C24.564 30.5 23.299 30.323 22.604 29.46C22 28.711 22 27.689 22 26.275L22.75 26.25H22C22 23.38 22.181 22 26.25 22C30.319 22 30.5 23.38 30.5 26.25C30.5 27.688 30.5 28.711 29.896 29.46C29.201 30.323 27.936 30.5 26.25 30.5Z" fill="#0F97B5"/>
</svg>
