<svg width="30" height="30" viewBox="0 0 30 30" fill="none" xmlns="http://www.w3.org/2000/svg">
<rect width="30" height="30" fill="#E5E5E5"/>
<rect width="1920" height="5861" transform="translate(-418 -764)" fill="#F7FCFD"/>
<path d="M-52 -76C-52 -104.284 -52 -118.426 -43.2132 -127.213C-34.4264 -136 -20.2843 -136 8 -136H512C540.284 -136 554.426 -136 563.213 -127.213C572 -118.426 572 -104.284 572 -76V37C572 65.2843 572 79.4264 563.213 88.2132C554.426 97 540.284 97 512 97H8.00001C-20.2843 97 -34.4264 97 -43.2132 88.2132C-52 79.4264 -52 65.2843 -52 37V-76Z" fill="#F4F5F4"/>
<path d="M24.873 4.79504C24.5496 4.79504 24.2871 5.05754 24.2871 5.38098C24.2871 5.70442 24.5496 5.96692 24.873 5.96692C25.1965 5.96692 25.459 5.70442 25.459 5.38098C25.459 5.05749 25.1965 4.79504 24.873 4.79504Z" fill="black"/>
<path d="M27.9175 4.20472C26.5191 2.63306 24.5796 1.76751 22.4561 1.76751C20.134 1.76751 18.0152 2.66757 16.3287 4.37042C15.7422 4.96251 15.3039 5.55408 15 6.02353C14.6961 5.55414 14.2578 4.96263 13.6713 4.37042C11.9848 2.66751 9.86602 1.76746 7.54395 1.76746C3.09926 1.76746 0 5.48588 0 9.90677C0 15.8785 6.32836 20.9068 14.6163 28.0894C14.7264 28.1848 14.8632 28.2325 15 28.2325C15.1368 28.2325 15.2736 28.1848 15.3837 28.0894C23.6914 20.8896 30 15.8702 30 9.90677C30 7.7391 29.2604 5.7141 27.9175 4.20472ZM15 26.8715C7.17369 20.099 1.17188 15.2348 1.17188 9.90677C1.17188 5.9347 3.91125 2.93939 7.54395 2.93939C9.56098 2.93939 11.3327 3.68857 12.8098 5.16601C13.9352 6.2916 14.4602 7.44033 14.4654 7.45181C14.5597 7.66199 14.7687 7.79699 14.9991 7.79746C14.9995 7.79746 14.9999 7.79746 15.0002 7.79746C15.2306 7.79746 15.4399 7.66193 15.5347 7.45181C15.5398 7.44033 16.0649 6.29166 17.1902 5.16601C18.6673 3.68851 20.439 2.93939 22.4561 2.93939C26.0888 2.93939 28.8282 5.9347 28.8282 9.90677C28.8281 15.3551 22.4303 20.4417 15 26.8715Z" fill="#B11D34"/>
<path d="M26.9223 6.88241C26.772 6.59576 26.4178 6.48537 26.1313 6.63561C25.8447 6.7859 25.7342 7.14004 25.8845 7.42662C26.2713 8.16414 26.4843 9.04492 26.4843 9.90672C26.4843 11.5998 25.6784 13.3969 23.9482 15.562C23.7462 15.8148 23.7874 16.1835 24.0402 16.3855C24.2946 16.5889 24.663 16.5448 24.8637 16.2936C26.7688 13.9096 27.6562 11.88 27.6562 9.90672C27.6562 8.8436 27.4024 7.79782 26.9223 6.88241Z" fill="#B11D34"/>
<path d="M16.8438 12.9982V13.4982H17.3438H20.625C20.6725 13.4982 20.7109 13.5366 20.7109 13.5841V17.0997C20.7109 17.1472 20.6725 17.1857 20.625 17.1857H17.3438H16.8438V17.6857V20.9669C16.8438 21.0144 16.8053 21.0529 16.7578 21.0529H13.2422C13.1947 21.0529 13.1562 21.0144 13.1562 20.9669V17.6857V17.1857H12.6562H9.375C9.32753 17.1857 9.28906 17.1472 9.28906 17.0997V13.5841C9.28906 13.5366 9.32753 13.4982 9.375 13.4982H12.6562H13.1562V12.9982V9.71692C13.1562 9.66945 13.1947 9.63098 13.2422 9.63098H16.7578C16.8053 9.63098 16.8438 9.66945 16.8438 9.71692V12.9982ZM20.0391 17.0137H20.5391V16.5137V14.17V13.67H20.0391H16.7578C16.7103 13.67 16.6719 13.6315 16.6719 13.584V10.3028V9.8028H16.1719H13.8281H13.3281V10.3028V13.584C13.3281 13.6315 13.2897 13.67 13.2422 13.67H9.96094H9.46094V14.17V16.5137V17.0137H9.96094H13.2422C13.2897 17.0137 13.3281 17.0522 13.3281 17.0997V20.3809V20.8809H13.8281H16.1719H16.6719V20.3809V17.0997C16.6719 17.0522 16.7103 17.0137 16.7578 17.0137H20.0391Z" fill="#B11D34" stroke="#B11D34"/>
</svg>
