<svg width="30" height="30" viewBox="0 0 30 30" fill="none" xmlns="http://www.w3.org/2000/svg">
<rect width="30" height="30" fill="#E5E5E5"/>
<rect width="1920" height="5861" transform="translate(-674 -760)" fill="#F7FCFD"/>
<path d="M-308 -72C-308 -100.284 -308 -114.426 -299.213 -123.213C-290.426 -132 -276.284 -132 -248 -132H256C284.284 -132 298.426 -132 307.213 -123.213C316 -114.426 316 -100.284 316 -72V41C316 69.2843 316 83.4264 307.213 92.2132C298.426 101 284.284 101 256 101H-248C-276.284 101 -290.426 101 -299.213 92.2132C-308 83.4264 -308 69.2843 -308 41V-72Z" fill="#F4F5F4"/>
<path opacity="0.4" d="M27.4999 19.9252C27.4999 23.4127 24.6999 26.2377 21.2124 26.2502H21.1999H8.81238C5.33738 26.2502 2.49988 23.4377 2.49988 19.9502V19.9377C2.49988 19.9377 2.50738 14.4052 2.51738 11.6227C2.51863 11.1002 3.11863 10.8077 3.52738 11.1327C6.49738 13.489 11.8086 17.7852 11.8749 17.8415C12.7624 18.5527 13.8874 18.954 15.0374 18.954C16.1874 18.954 17.3124 18.5527 18.1999 17.8277C18.2661 17.784 23.4586 13.6165 26.4736 11.2215C26.8836 10.8952 27.4861 11.1877 27.4874 11.709C27.4999 14.4702 27.4999 19.9252 27.4999 19.9252" fill="#B11D34"/>
<path d="M26.845 7.09201C25.7625 5.05201 23.6325 3.74951 21.2875 3.74951H8.81248C6.46748 3.74951 4.33748 5.05201 3.25498 7.09201C3.01248 7.54826 3.12748 8.11701 3.53123 8.43951L12.8125 15.8633C13.4625 16.3883 14.25 16.6495 15.0375 16.6495C15.0425 16.6495 15.0462 16.6495 15.05 16.6495C15.0537 16.6495 15.0587 16.6495 15.0625 16.6495C15.85 16.6495 16.6375 16.3883 17.2875 15.8633L26.5687 8.43951C26.9725 8.11701 27.0875 7.54826 26.845 7.09201" fill="#B11D34"/>
</svg>
