<svg width="40" height="40" viewBox="0 0 40 40" fill="none" xmlns="http://www.w3.org/2000/svg">
<path d="M24.0177 17.2396L16.2303 20.9775L20.124 8.5176L24.0177 17.2396Z" stroke="#24BEE0" stroke-width="1.5" stroke-miterlimit="10" stroke-linecap="round" stroke-linejoin="round"/>
<mask id="path-2-inside-1_3475_1085" fill="white">
<path d="M24.2 18L32 20.4L23 25.6L22.2 25.2L8 20.4L16 16.4"/>
</mask>
<path d="M24.6411 16.5663C23.8493 16.3227 23.01 16.7671 22.7663 17.5589C22.5227 18.3507 22.9671 19.19 23.7589 19.4337L24.6411 16.5663ZM32 20.4L32.7504 21.6988C33.267 21.4003 33.5576 20.8241 33.4905 20.2313C33.4234 19.6385 33.0113 19.1418 32.4411 18.9663L32 20.4ZM23 25.6L22.3292 26.9417C22.78 27.1671 23.314 27.151 23.7504 26.8988L23 25.6ZM22.2 25.2L22.8708 23.8584C22.8092 23.8276 22.7456 23.8011 22.6803 23.779L22.2 25.2ZM8 20.4L7.32918 19.0584C6.78757 19.3292 6.4619 19.8991 6.50355 20.5032C6.5452 21.1073 6.946 21.6271 7.51966 21.821L8 20.4ZM16.6708 17.7416C17.4118 17.3712 17.7121 16.4702 17.3416 15.7292C16.9712 14.9882 16.0701 14.6879 15.3292 15.0584L16.6708 17.7416ZM23.7589 19.4337L31.5589 21.8337L32.4411 18.9663L24.6411 16.5663L23.7589 19.4337ZM31.2496 19.1012L22.2496 24.3012L23.7504 26.8988L32.7504 21.6988L31.2496 19.1012ZM23.6708 24.2584L22.8708 23.8584L21.5292 26.5417L22.3292 26.9417L23.6708 24.2584ZM22.6803 23.779L8.48034 18.979L7.51966 21.821L21.7197 26.621L22.6803 23.779ZM8.67082 21.7417L16.6708 17.7416L15.3292 15.0584L7.32918 19.0584L8.67082 21.7417Z" fill="#24BEE0" mask="url(#path-2-inside-1_3475_1085)"/>
<mask id="path-4-inside-2_3475_1085" fill="white">
<path d="M22 26.4L20 32.4L15 23.2"/>
</mask>
<path d="M23.423 26.8743C23.685 26.0884 23.2603 25.2389 22.4743 24.977C21.6884 24.715 20.8389 25.1397 20.577 25.9257L23.423 26.8743ZM20 32.4L18.6821 33.1163C18.9673 33.6411 19.5368 33.9467 20.1319 33.8942C20.7269 33.8417 21.2341 33.4411 21.423 32.8743L20 32.4ZM16.3179 22.4837C15.9224 21.7559 15.0116 21.4865 14.2837 21.8821C13.5559 22.2776 13.2865 23.1884 13.6821 23.9163L16.3179 22.4837ZM20.577 25.9257L18.577 31.9257L21.423 32.8743L23.423 26.8743L20.577 25.9257ZM21.3179 31.6837L16.3179 22.4837L13.6821 23.9163L18.6821 33.1163L21.3179 31.6837Z" fill="#24BEE0" mask="url(#path-4-inside-2_3475_1085)"/>
<path d="M39.25 20C39.25 30.6315 30.6315 39.25 20 39.25C9.36852 39.25 0.75 30.6315 0.75 20C0.75 9.36852 9.36852 0.75 20 0.75C30.6315 0.75 39.25 9.36852 39.25 20Z" stroke="#24BEE0" stroke-width="1.5" stroke-miterlimit="10" stroke-linecap="round" stroke-linejoin="round"/>
</svg>
