<svg width="80" height="80" viewBox="0 0 80 80" fill="none" xmlns="http://www.w3.org/2000/svg">
<g clip-path="url(#clip0_3104_3235)">
<path d="M23.9007 56.6667C25.6006 56.6667 27.1673 55.7 27.9006 54.2L32.634 44.7334C33.1006 43.8 33.334 42.8 33.334 41.7667V26.6667C33.334 24.8334 31.834 23.3334 30.0006 23.3334H16.6673C14.834 23.3334 13.334 24.8334 13.334 26.6667V40C13.334 41.8334 14.834 43.3334 16.6673 43.3334H23.334L19.9006 50.2C18.4007 53.1667 20.5673 56.6667 23.9007 56.6667ZM57.234 56.6667C58.934 56.6667 60.5006 55.7 61.234 54.2L65.9673 44.7334C66.434 43.8 66.6673 42.8 66.6673 41.7667V26.6667C66.6673 24.8334 65.1673 23.3334 63.334 23.3334H50.0006C48.1673 23.3334 46.6673 24.8334 46.6673 26.6667V40C46.6673 41.8334 48.1673 43.3334 50.0006 43.3334H56.6673L53.234 50.2C51.734 53.1667 53.9006 56.6667 57.234 56.6667Z" fill="#12CCF4" fill-opacity="0.3"/>
</g>
<defs>
<clipPath id="clip0_3104_3235">
<rect width="80" height="80" fill="white"/>
</clipPath>
</defs>
</svg>
