<svg width="18" height="17" viewBox="0 0 18 17" fill="none" xmlns="http://www.w3.org/2000/svg">
<path d="M16.8631 0.651612C16.4463 0.223791 15.8294 0.0644069 15.2541 0.23218L1.84032 4.1329C1.23341 4.30151 0.803231 4.78553 0.687351 5.40042C0.568969 6.02621 0.982472 6.82062 1.52269 7.15281L5.71691 9.73063C6.14709 9.99488 6.70231 9.92861 7.05829 9.56957L11.8611 4.73688C12.1029 4.48522 12.503 4.48522 12.7448 4.73688C12.9866 4.98015 12.9866 5.37441 12.7448 5.62607L7.93365 10.4596C7.57684 10.8178 7.51014 11.3756 7.77275 11.8085L10.3355 16.0448C10.6356 16.5481 11.1525 16.8333 11.7194 16.8333C11.7861 16.8333 11.8611 16.8333 11.9278 16.8249C12.5781 16.741 13.0949 16.2964 13.2867 15.6673L17.2633 2.27062C17.4384 1.70019 17.28 1.07943 16.8631 0.651612" fill="white"/>
</svg>
