<svg width="30" height="30" viewBox="0 0 30 30" fill="none" xmlns="http://www.w3.org/2000/svg">
<rect width="30" height="30" fill="#E5E5E5"/>
<rect width="1920" height="5861" transform="translate(-674 -680)" fill="#F7FCFD"/>
<path d="M-308 8C-308 -20.2843 -308 -34.4264 -299.213 -43.2132C-290.426 -52 -276.284 -52 -248 -52H256C284.284 -52 298.426 -52 307.213 -43.2132C316 -34.4264 316 -20.2843 316 8V121C316 149.284 316 163.426 307.213 172.213C298.426 181 284.284 181 256 181H-248C-276.284 181 -290.426 181 -299.213 172.213C-308 163.426 -308 149.284 -308 121V8Z" fill="#F4F5F4"/>
<path d="M11.6867 18.5721C6.73191 18.5721 2.5 19.3375 2.5 22.3967C2.5 25.4582 6.705 26.25 11.6867 26.25C16.6414 26.25 20.8733 25.4846 20.8733 22.4254C20.8733 19.3639 16.6683 18.5721 11.6867 18.5721" fill="#B11D34"/>
<path opacity="0.4" d="M11.6867 15.656C15.0612 15.656 17.7655 13.0077 17.7655 9.70301C17.7655 6.39831 15.0612 3.75 11.6867 3.75C8.3134 3.75 5.60791 6.39831 5.60791 9.70301C5.60791 13.0077 8.3134 15.656 11.6867 15.656" fill="#B11D34"/>
<path opacity="0.4" d="M20.2167 9.81091C20.2167 11.4938 19.7006 13.0641 18.7955 14.3685C18.7013 14.5027 18.7845 14.6835 18.9484 14.7123C19.1759 14.7494 19.4095 14.7722 19.648 14.7769C22.0208 14.838 24.1502 13.342 24.7385 11.089C25.6106 7.74592 23.0519 4.74426 19.7923 4.74426C19.4388 4.74426 19.1 4.7802 18.7698 4.84607C18.7245 4.85566 18.6756 4.87722 18.6512 4.91555C18.6194 4.96466 18.6426 5.02814 18.6744 5.07006C19.6541 6.41518 20.2167 8.05256 20.2167 9.81091" fill="#B11D34"/>
<path d="M27.2239 18.9617C26.7897 18.055 25.7415 17.4333 24.1466 17.1279C23.3944 16.9482 21.3567 16.6931 19.4622 16.729C19.434 16.7326 19.4181 16.7518 19.4157 16.7637C19.412 16.7829 19.4206 16.8117 19.4573 16.832C20.333 17.256 23.7173 19.1006 23.2917 22.991C23.2733 23.1611 23.4115 23.3049 23.584 23.2809C24.4169 23.1647 26.5598 22.7132 27.2239 21.3094C27.5921 20.5667 27.5921 19.7043 27.2239 18.9617" fill="#B11D34"/>
</svg>
