<svg width="30" height="40" viewBox="0 0 30 40" fill="none" xmlns="http://www.w3.org/2000/svg">
<path d="M29.8855 39.0923C29.4056 36.1809 28.7873 33.6561 27.7442 30.849C25.9041 25.8973 23.4414 22.2559 20.414 20.0045C25.8682 15.9598 28.8072 7.60508 29.8177 0.896172C29.8885 0.425547 29.5165 0.00664063 29.0457 0.00632813C27.9556 0.00546875 26.7828 0.00398437 25.8855 0.0015625C25.8848 0.0015625 25.8841 0.0015625 25.8835 0.0015625C25.5015 0.0015625 25.1755 0.269922 25.1128 0.646797C25.0371 1.10188 24.8589 2.08469 24.547 3.35938H11.6264C11.195 3.35938 10.8451 3.70922 10.8451 4.14062C10.8451 4.57203 11.195 4.91406 11.6264 4.91406H24.1328C23.8342 5.9582 23.4606 7.11406 23.0011 8.28125H6.95636C5.5948 4.855 4.97909 1.60172 4.81777 0.650547C4.75394 0.274922 4.42847 0 4.04745 0H0.885735C0.40925 0 0.0440163 0.423359 0.11261 0.893906C1.05378 7.35836 4.16519 15.9337 9.58816 19.9912C4.0998 24.057 1.24206 32.3212 0.179407 39.1094C0.112766 39.5809 0.479563 40 0.952922 40H4.11308C4.49495 40 4.82081 39.724 4.88363 39.3473C4.95956 38.8927 5.13785 37.912 5.4491 36.6406H18.3701C18.8015 36.6406 19.1514 36.2908 19.1514 35.8594C19.1514 35.428 18.8015 35.0781 18.3701 35.0781H5.86339C6.16206 34.0337 6.53566 32.8854 6.99488 31.7188H23.071C24.0341 34.1238 24.7213 36.5613 25.1509 39.1807C25.1623 39.2506 25.1721 39.3102 25.1803 39.3584C25.2439 39.7345 25.5696 39.9859 25.9505 39.9859C25.9518 39.9859 25.9531 39.9859 25.9544 39.9859C26.9231 39.9812 28.1589 39.9867 29.116 39.9852C29.596 39.9844 29.9642 39.5691 29.8855 39.0923ZM26.5373 1.55773C27.0359 1.55867 27.582 1.55945 28.1321 1.56008C27.075 7.69 24.1957 15.5977 19.0111 19.0842C18.4636 18.771 17.8989 18.4999 17.3203 18.2722C22.6308 15.3258 25.4131 7.50633 26.5373 1.55773ZM14.9956 17.575C13.3893 17.0867 11.9045 16.0655 10.5657 14.5312H19.4126C18.0795 16.0636 16.5989 17.0847 14.9956 17.575ZM22.3353 9.83594C21.8013 10.9937 21.221 12.0478 20.6024 12.9688H9.37152C8.74956 12.0476 8.16574 10.9935 7.62777 9.83594H22.3353ZM3.45847 38.4375H1.86488C2.92198 32.3096 5.8012 24.3998 10.9882 20.9138C11.535 21.2276 12.0991 21.4992 12.6775 21.7273C7.36495 24.6737 4.56816 32.5256 3.45847 38.4375ZM15.0014 22.4252C16.611 22.9139 18.1004 23.9348 19.4446 25.4688H10.5841C11.9172 23.9365 13.3979 22.9155 15.0014 22.4252ZM7.66089 30.1562C8.19535 28.9981 8.77574 27.9519 9.39417 27.0312H20.644C21.2678 27.9511 21.8544 28.9974 22.3957 30.1562H7.66089ZM26.612 38.4442C25.4397 31.628 21.7443 22.3676 14.8246 20.762C7.14519 18.9999 3.19542 9.28922 1.80214 1.5625H3.3955C4.70667 8.38078 8.11753 17.3145 14.7896 19.1418C14.7952 19.1434 14.801 19.1448 14.8066 19.1463C15.3864 19.3054 16.8076 19.5396 18.621 20.6709C22.5731 23.1345 24.9671 27.8616 26.2796 31.3933C27.4125 34.442 27.9782 37.2037 28.1968 38.44C27.675 38.4411 27.1261 38.4423 26.612 38.4442Z" fill="#24BEE0"/>
</svg>
